HIERARCHY
ROOT Hips
{
	OFFSET 54.227600 -13.960316 95.683601
	CHANNELS 6 Xposition Yposition Zposition Xrotation Yrotation Zrotation
	JOINT spine
	{
		OFFSET 0.000000 -0.458069 7.965683
		CHANNELS 3 Xrotation Yrotation Zrotation
		JOINT spine1
		{
			OFFSET 0.000000 -0.000001 10.243103
			CHANNELS 3 Xrotation Yrotation Zrotation
			JOINT spine2
			{
				OFFSET 0.000000 -0.000002 9.814751
				CHANNELS 3 Xrotation Yrotation Zrotation
				JOINT Neck
				{
					OFFSET 0.000000 -1.201384 25.198593
					CHANNELS 3 Xrotation Yrotation Zrotation
					JOINT Head
					{
						OFFSET 0.000000 -0.000002 7.613144
						CHANNELS 3 Xrotation Yrotation Zrotation
						End Site
						{
							OFFSET 0.000000 6.077327 18.428101
						}
					}
				}
				JOINT RightShoulder
				{
					OFFSET -4.132698 0.575449 10.599197
					CHANNELS 3 Xrotation Yrotation Zrotation
					JOINT RightArm
					{
						OFFSET 0.000000 -0.000002 13.901794
						CHANNELS 3 Xrotation Yrotation Zrotation
						JOINT RightArmRoll
						{
							OFFSET 0.000000 -0.000002 7.017883
							CHANNELS 3 Xrotation Yrotation Zrotation
							JOINT RightForeArm
							{
								OFFSET 0.000000 -0.000003 20.440598
								CHANNELS 3 Xrotation Yrotation Zrotation
								JOINT RightForeArmRoll
								{
									OFFSET 0.000000 -0.000001 7.875168
									CHANNELS 3 Xrotation Yrotation Zrotation
									JOINT RightHand
									{
										OFFSET 0.000000 -0.000003 15.803696
										CHANNELS 3 Xrotation Yrotation Zrotation
										End Site
										{
											OFFSET 0.000000 0.000000 0.100006
										}
									}
								}
							}
						}
					}
				}
				JOINT LeftShoulder
				{
					OFFSET 4.132698 0.575449 10.599197
					CHANNELS 3 Xrotation Yrotation Zrotation
					JOINT LeftArm
					{
						OFFSET 0.000000 -0.000002 13.901794
						CHANNELS 3 Xrotation Yrotation Zrotation
						JOINT LeftArmRoll
						{
							OFFSET 0.000000 -0.000002 7.017883
							CHANNELS 3 Xrotation Yrotation Zrotation
							JOINT LeftForeArm
							{
								OFFSET 0.000000 -0.000003 20.440598
								CHANNELS 3 Xrotation Yrotation Zrotation
								JOINT LeftForeArmRoll
								{
									OFFSET 0.000000 -0.000001 7.875153
									CHANNELS 3 Xrotation Yrotation Zrotation
									JOINT LeftHand
									{
										OFFSET 0.000000 -0.000003 15.803696
										CHANNELS 3 Xrotation Yrotation Zrotation
										End Site
										{
											OFFSET 0.000000 0.000000 0.100006
										}
									}
								}
							}
						}
					}
				}
			}
		}
	}
	JOINT RightUpLeg
	{
		OFFSET -7.060478 1.086090 -1.294701
		CHANNELS 3 Xrotation Yrotation Zrotation
		JOINT RightUpLegRoll
		{
			OFFSET 0.000000 -0.000003 18.530800
			CHANNELS 3 Xrotation Yrotation Zrotation
			JOINT RightLeg
			{
				OFFSET 0.000000 0.000004 -22.947601
				CHANNELS 3 Xrotation Yrotation Zrotation
				JOINT RightLegRoll
				{
					OFFSET 0.000000 -0.000004 23.022598
					CHANNELS 3 Xrotation Yrotation Zrotation
					JOINT RightFoot
					{
						OFFSET 0.000000 -0.000004 19.162498
						CHANNELS 3 Xrotation Yrotation Zrotation
						JOINT RightToeBase
						{
							OFFSET 0.000000 -0.000002 16.018799
							CHANNELS 3 Xrotation Yrotation Zrotation
							End Site
							{
								OFFSET 0.006790 0.894205 7.757812
							}
						}
					}
				}
			}
		}
	}
	JOINT LeftUpLeg
	{
		OFFSET 7.060478 1.086090 -1.294701
		CHANNELS 3 Xrotation Yrotation Zrotation
		JOINT LeftUpLegRoll
		{
			OFFSET 0.000000 -0.000003 18.530899
			CHANNELS 3 Xrotation Yrotation Zrotation
			JOINT LeftLeg
			{
				OFFSET 0.000000 -0.000004 22.947495
				CHANNELS 3 Xrotation Yrotation Zrotation
				JOINT LeftLegRoll
				{
					OFFSET 0.000000 -0.000004 23.235504
					CHANNELS 3 Xrotation Yrotation Zrotation
					JOINT LeftFoot
					{
						OFFSET 0.000000 -0.000003 18.949600
						CHANNELS 3 Xrotation Yrotation Zrotation
						JOINT LeftToeBase
						{
							OFFSET 0.000000 -0.000003 16.018799
							CHANNELS 3 Xrotation Yrotation Zrotation
							End Site
							{
								OFFSET -0.030430 0.894205 7.757812
							}
						}
					}
				}
			}
		}
	}
}
MOTION
Frames: 13
Frame Time: 0.041667
54.444199 -13.597818 95.706398 -0.452046 -0.067141 2.968780 -2.331854 0.759121 0.239389 -0.664276 1.510808 0.491998 0.981016 1.517067 0.473857 25.758785 -24.668692 -1.264059 -1.022638 18.591840 -4.740503 -18.343650 -16.210426 -21.513610 -136.359099 -186.884535 -82.318341 -0.000006 0.000003 -0.000004 37.171618 14.133216 4.051971 0.000003 0.000018 -3.009302 -5.000137 -8.000011 0.000010 24.078247 70.668204 -24.855108 -54.418098 108.797933 31.445948 0.000001 -0.000001 -0.000001 1.069178 2.920942 -0.313144 -0.000005 -0.000005 3.007712 -5.000167 8.000131 -0.000006 2.200532 -174.951717 -1.602620 -179.999991 0.000005 -1.153997 174.373077 -2.040124 -0.615958 -0.000001 -0.000001 0.118231 70.571113 6.893912 1.986072 25.973574 -7.355611 0.766305 1.877680 174.934709 0.993560 -0.000005 -0.000004 -1.144880 -3.101440 1.850757 0.151912 -0.000007 -0.000002 -0.034589 69.252716 -6.952844 -1.962294 25.465329 7.355462 -0.007850 
54.453602 -13.595515 95.703590 -0.454349 -0.060858 2.966887 -2.331213 0.759914 0.237975 -0.662976 1.512449 0.488711 0.982316 1.518557 0.470552 25.775843 -24.606817 -1.261326 -1.027538 18.537120 -4.730912 -18.320779 -16.432023 -21.477595 -136.409710 -186.633703 -82.528718 -0.000003 0.000006 -0.000003 36.984675 14.084623 4.002363 0.000004 0.000017 -3.009299 -5.000133 -8.000010 0.000009 24.012261 70.652897 -24.787573 -54.345739 108.808684 31.355346 -0.000003 -0.000000 0.000001 1.063957 2.895422 -0.313459 -0.000006 -0.000005 3.007713 -5.000168 8.000129 -0.000005 2.202579 -174.954722 -1.608345 -179.999991 0.000005 -1.153997 174.376027 -2.033174 -0.616165 -0.000002 -0.000001 0.118272 70.570095 6.894034 1.985856 25.973773 -7.355616 0.765679 1.882220 174.937728 0.999617 -0.000005 -0.000005 -1.144860 -3.095195 1.844556 0.151925 -0.000007 -0.000002 -0.034579 69.253269 -6.952907 -1.962168 25.465332 7.355461 -0.007819 
54.469002 -13.597216 95.707092 -0.455620 -0.055039 2.964352 -2.330767 0.760691 0.236159 -0.662048 1.514069 0.484793 0.983245 1.519976 0.466616 25.791679 -24.546501 -1.257888 -1.031867 18.486204 -4.720876 -18.297216 -16.647550 -21.440783 -136.452631 -186.383732 -82.730031 -0.000003 0.000003 -0.000004 36.791617 14.039845 3.955177 0.000005 0.000016 -3.009290 -5.000132 -8.000010 0.000008 23.940079 70.638117 -24.713233 -54.271816 108.820377 31.263903 0.000000 0.000000 -0.000000 1.057559 2.870642 -0.313807 -0.000002 -0.000005 3.007711 -5.000163 8.000130 -0.000006 2.202317 -174.957713 -1.614602 -179.999991 0.000005 -1.153996 174.376956 -2.025211 -0.616360 -0.000002 -0.000001 0.118391 70.570027 6.894134 1.985777 25.973977 -7.355613 0.765048 1.884908 174.940734 1.004628 -0.000005 -0.000005 -1.144840 -3.090215 1.840032 0.151936 -0.000007 -0.000002 -0.034568 69.253802 -6.952931 -1.962139 25.465332 7.355461 -0.007790 
54.476799 -13.592815 95.705002 -0.455628 -0.049732 2.961164 -2.330545 0.761452 0.233881 -0.661589 1.515659 0.480144 0.983705 1.521316 0.461950 25.806188 -24.487760 -1.253584 -1.035432 18.439597 -4.710386 -18.272660 -16.855211 -21.402915 -136.485730 -186.135045 -82.919890 -0.000004 0.000002 -0.000004 36.590440 13.999986 3.911292 0.000004 0.000017 -3.009291 -5.000134 -8.000008 0.000011 23.860929 70.624067 -24.631204 -54.201489 108.831995 31.177222 -0.000001 0.000000 0.000000 1.049925 2.846823 -0.314195 -0.000005 -0.000005 3.007711 -5.000166 8.000130 -0.000006 2.199418 -174.959694 -1.621393 -179.999991 0.000005 -1.153997 174.375727 -2.016261 -0.616520 -0.000002 -0.000001 0.118593 70.570730 6.894340 1.985567 25.973874 -7.355617 0.764395 1.885425 174.943712 1.008401 -0.000005 -0.000005 -1.144830 -3.086699 1.837492 0.151944 -0.000007 -0.000002 -0.034558 69.254341 -6.952955 -1.962112 25.465336 7.355461 -0.007759 
54.491501 -13.568513 95.692390 -0.454655 -0.044871 2.957254 -2.330487 0.762208 0.231145 -0.661439 1.517259 0.474789 0.983856 1.522556 0.456576 25.819312 -24.431804 -1.248322 -1.038549 18.398581 -4.699364 -18.247955 -17.059618 -21.365120 -136.512068 -185.888735 -83.101518 -0.000005 0.000001 -0.000004 36.383216 13.963320 3.869450 0.000004 0.000017 -3.009290 -5.000133 -8.000009 0.000010 23.774429 70.609936 -24.541242 -54.129437 108.844460 31.090461 0.000002 -0.000000 -0.000000 1.040746 2.824616 -0.314591 -0.000001 -0.000006 3.007712 -5.000168 8.000128 -0.000006 2.193907 -174.962672 -1.628972 -179.999991 0.000005 -1.153997 174.371847 -2.007288 -0.616772 -0.000002 -0.000001 0.118901 70.572615 6.894556 1.985488 25.973772 -7.355617 0.763759 1.884062 174.945720 1.010956 -0.000005 -0.000005 -1.144810 -3.084517 1.836757 0.151951 -0.000007 -0.000001 -0.034547 69.254676 -6.953006 -1.962099 25.465331 7.355461 -0.007731 
54.501701 -13.569216 95.695892 -0.453207 -0.040340 2.952651 -2.330456 0.762970 0.228031 -0.661340 1.518879 0.468875 0.983955 1.523705 0.450642 25.831311 -24.379348 -1.241867 -1.041748 18.363467 -4.687729 -18.224070 -17.267200 -21.329118 -136.537011 -185.645197 -83.284123 -0.000005 0.000003 -0.000004 36.174454 13.926500 3.827552 0.000004 0.000018 -3.009291 -5.000133 -8.000009 0.000008 23.681319 70.594752 -24.444386 -54.055302 108.857629 31.003670 -0.000001 0.000001 0.000002 1.029782 2.804378 -0.314953 -0.000002 -0.000006 3.007709 -5.000167 8.000131 -0.000006 2.186262 -174.964653 -1.637340 -179.999991 0.000004 -1.153997 174.365085 -1.996308 -0.616925 -0.000002 -0.000001 0.119331 70.575805 6.894887 1.985349 25.973575 -7.355618 0.763138 1.881564 174.948725 1.012705 -0.000005 -0.000005 -1.144800 -3.083326 1.837308 0.151955 -0.000008 -0.000002 -0.034537 69.255106 -6.953027 -1.962076 25.465327 7.355462 -0.007701 
54.519199 -13.574614 95.696701 -0.451316 -0.036133 2.947395 -2.330458 0.763732 0.224580 -0.661292 1.520509 0.462458 0.984006 1.524785 0.444205 25.842191 -24.329923 -1.234410 -1.045029 18.333257 -4.675521 -18.201052 -17.477283 -21.294612 -136.560658 -185.403586 -83.464898 -0.000004 0.000003 -0.000004 35.964453 13.889458 3.785622 0.000004 0.000017 -3.009290 -5.000132 -8.000008 0.000011 23.582519 70.578824 -24.341561 -53.981652 108.870982 30.919057 0.000001 -0.000000 0.000002 1.017240 2.785671 -0.315299 -0.000004 -0.000006 3.007711 -5.000167 8.000130 -0.000005 2.176698 -174.966620 -1.646424 -179.999991 0.000005 -1.153997 174.355783 -1.984340 -0.617067 -0.000002 -0.000001 0.119871 70.580197 6.895259 1.985238 25.973381 -7.355614 0.762534 1.878033 174.950706 1.013671 -0.000005 -0.000004 -1.144780 -3.083030 1.839026 0.151959 -0.000008 -0.000001 -0.034527 69.255441 -6.953076 -1.961964 25.465334 7.355461 -0.007669 
54.528999 -13.567013 95.694092 -0.449023 -0.032245 2.941527 -2.330477 0.764491 0.220836 -0.661295 1.522129 0.455596 0.984004 1.525775 0.437325 25.852032 -24.282844 -1.226090 -1.048381 18.307241 -4.662767 -18.178745 -17.689213 -21.261453 -136.582815 -185.163068 -83.646055 -0.000004 0.000003 -0.000004 35.753441 13.852249 3.743845 0.000001 0.000018 -3.009291 -5.000135 -8.000011 0.000010 23.478535 70.562165 -24.233301 -53.906103 108.885114 30.833796 0.000002 0.000000 -0.000001 1.003290 2.768056 -0.315642 -0.000005 -0.000006 3.007713 -5.000166 8.000130 -0.000005 2.165415 -174.969584 -1.656157 -179.999991 0.000005 -1.153997 174.344267 -1.972366 -0.618292 -0.000001 -0.000001 0.120502 70.585559 6.895708 1.985183 25.972966 -7.355621 0.761893 1.873582 174.952686 1.014008 -0.000005 -0.000005 -1.144770 -3.083534 1.841771 0.151960 -0.000007 -0.000001 -0.034517 69.255864 -6.953098 -1.961940 25.465334 7.355461 -0.007650 
54.536800 -13.562716 95.709793 -0.446352 -0.028669 2.935107 -2.330528 0.765242 0.216840 -0.661352 1.523748 0.448351 0.983948 1.526715 0.430061 25.861053 -24.237608 -1.217012 -1.051800 18.284322 -4.649512 -18.156945 -17.902144 -21.229317 -136.603578 -184.922741 -83.826734 -0.000004 0.000005 -0.000003 35.541914 13.814772 3.701996 0.000003 0.000018 -3.009291 -5.000134 -8.000008 0.000010 23.370209 70.544994 -24.120446 -53.831060 108.899450 30.750003 0.000001 -0.000000 0.000002 0.988102 2.751101 -0.315990 -0.000002 -0.000006 3.007712 -5.000163 8.000130 -0.000006 2.152651 -174.971538 -1.666351 -179.999991 0.000004 -1.153996 174.330880 -1.958386 -0.618368 -0.000001 -0.000001 0.121213 70.591993 6.896164 1.985063 25.972563 -7.355618 0.761228 1.868285 174.954667 1.013829 -0.000005 -0.000004 -1.144750 -3.084762 1.845424 0.151961 -0.000007 -0.000002 -0.034507 69.256199 -6.953148 -1.961829 25.465331 7.355460 -0.007620 
54.549099 -13.559115 95.705200 -0.443338 -0.025403 2.928183 -2.330608 0.765981 0.212632 -0.661461 1.525348 0.440780 0.983839 1.527585 0.422471 25.869330 -24.193543 -1.207320 -1.055277 18.263607 -4.635791 -18.135595 -18.115405 -21.197875 -136.622922 -184.681772 -84.006136 -0.000004 0.000004 -0.000003 35.330086 13.777009 3.660424 0.000004 0.000018 -3.009292 -5.000134 -8.000009 0.000010 23.258234 70.527516 -24.003709 -53.754542 108.914716 30.665063 -0.000001 0.000000 0.000001 0.971867 2.734377 -0.316363 -0.000004 -0.000006 3.007710 -5.000171 8.000130 -0.000005 2.138608 -174.973478 -1.676946 -179.999991 0.000005 -1.153997 174.315881 -1.944402 -0.619489 -0.000001 -0.000001 0.121987 70.599089 6.896658 1.985107 25.972155 -7.355616 0.760534 1.862273 174.957645 1.013274 -0.000005 -0.000005 -1.144740 -3.086611 1.849844 0.151961 -0.000007 -0.000002 -0.034498 69.256431 -6.953190 -1.961823 25.465336 7.355461 -0.007590 
54.553299 -13.550314 95.695793 -0.440015 -0.022439 2.920798 -2.330709 0.766703 0.208255 -0.661627 1.526918 0.432942 0.983675 1.528405 0.414614 25.876839 -24.150002 -1.197199 -1.058822 18.244190 -4.621643 -18.114517 -18.328346 -21.167076 -136.640789 -184.439286 -84.184213 -0.000006 0.000004 -0.000003 35.118456 13.738871 3.619013 0.000002 0.000018 -3.009282 -5.000131 -8.000008 0.000010 23.143194 70.509764 -23.883701 -53.676346 108.930849 30.578405 0.000002 0.000000 0.000002 0.954762 2.717444 -0.316766 -0.000004 -0.000006 3.007710 -5.000169 8.000130 -0.000006 2.123524 -174.975445 -1.687822 -179.999991 0.000005 -1.153997 174.299652 -1.930414 -0.619661 -0.000001 -0.000001 0.122812 70.606917 6.897156 1.985008 25.971550 -7.355619 0.759769 1.855642 174.959640 1.012382 -0.000005 -0.000005 -1.144720 -3.089000 1.854903 0.151960 -0.000007 -0.000002 -0.034488 69.256752 -6.953207 -1.961806 25.465336 7.355462 -0.007560 
54.564999 -13.546417 95.698792 -0.436417 -0.019772 2.912990 -2.330848 0.767405 0.203751 -0.661849 1.528448 0.424896 0.983454 1.529175 0.406550 25.883825 -24.106569 -1.186812 -1.062410 18.225175 -4.607092 -18.093740 -18.540286 -21.136719 -136.657236 -184.194424 -84.360944 -0.000005 0.000003 -0.000004 34.907239 13.700330 3.577912 0.000002 0.000017 -3.009281 -5.000134 -8.000008 0.000010 23.025946 70.492053 -23.761272 -53.599254 108.947412 30.492584 -0.000002 -0.000000 -0.000001 0.936961 2.699880 -0.317218 -0.000004 -0.000005 3.007713 -5.000167 8.000130 -0.000004 2.107597 -174.977371 -1.698870 -179.999991 0.000004 -1.153996 174.282481 -1.914440 -0.620641 -0.000001 -0.000001 0.123672 70.615195 6.897689 1.984987 25.970942 -7.355619 0.758934 1.848487 174.962604 1.011327 -0.000005 -0.000005 -1.144710 -3.091842 1.860489 0.151960 -0.000007 -0.000001 -0.034478 69.256978 -6.953253 -1.961700 25.465331 7.355461 -0.007529 
54.580101 -13.541114 95.709503 -0.432575 -0.017399 2.904819 -2.331008 0.768080 0.199161 -0.662129 1.529928 0.416699 0.983176 1.529925 0.398337 25.890358 -24.062565 -1.176100 -1.066050 18.205553 -4.592179 -18.072959 -18.750391 -21.106451 -136.672072 -183.946324 -84.536001 -0.000003 0.000002 -0.000004 34.696924 13.661232 3.537157 0.000002 0.000018 -3.009281 -5.000135 -8.000008 0.000009 22.907095 70.474493 -23.637065 -53.522858 108.964248 30.406715 0.000002 0.000000 0.000000 0.918653 2.681236 -0.317731 -0.000002 -0.000006 3.007700 -5.000164 8.000130 -0.000006 2.091051 -174.978313 -1.709955 -179.999991 0.000005 -1.153997 174.264709 -1.899456 -0.621731 -0.000001 -0.000001 0.124553 70.623787 6.898226 1.984944 25.970334 -7.355612 0.758013 1.840923 174.964585 1.010155 -0.000005 -0.000005 -1.144690 -3.095043 1.866455 0.151959 -0.000007 -0.000001 -0.034468 69.257100 -6.953293 -1.961699 25.465329 7.355461 -0.007501 
